<svg xmlns="http://www.w3.org/2000/svg" version="1.1" xmlns:xlink="http://www.w3.org/1999/xlink" width="512" height="512" x="0" y="0" viewBox="0 0 32 32" style="enable-background:new 0 0 512 512" xml:space="preserve" class="">
  <g>
    <linearGradient id="a">
      <stop stop-opacity="1" stop-color="#42a5f5" offset="0"></stop>
      <stop stop-opacity="1" stop-color="#0a79db" offset="1"></stop>
    </linearGradient>
    <linearGradient xlink:href="#a" id="c" x1="1" x2="21" y1="11" y2="11" gradientUnits="userSpaceOnUse"></linearGradient>
    <linearGradient id="b">
      <stop stop-opacity="1" stop-color="#bbdefb" offset="0"></stop>
      <stop stop-opacity="1" stop-color="#4996ff" offset="1"></stop>
    </linearGradient>
    <linearGradient xlink:href="#b" id="d" x1="10" x2="12" y1="14" y2="14" gradientUnits="userSpaceOnUse"></linearGradient>
    <linearGradient xlink:href="#b" id="e" x1="8" x2="14" y1="8.5" y2="8.5" gradientUnits="userSpaceOnUse"></linearGradient>
    <linearGradient xlink:href="#b" id="f" x1="11" x2="31" y1="21" y2="21" gradientUnits="userSpaceOnUse"></linearGradient>
    <linearGradient xlink:href="#a" id="g" x1="17" x2="25" y1="21" y2="21" gradientUnits="userSpaceOnUse"></linearGradient>
    <path fill="url(#c)" d="M2.51 16.273A9.922 9.922 0 0 1 1 11C1 5.486 5.486 1 11 1s10 4.486 10 10-4.486 10-10 10a9.93 9.93 0 0 1-5.273-1.509L2.394 20.92a.997.997 0 0 1-1.101-.212 1 1 0 0 1-.212-1.1z" opacity="1" data-original="url(#c)"></path>
    <circle cx="11" cy="14" r="1" fill="url(#d)" opacity="1" data-original="url(#d)"></circle>
    <path fill="url(#e)" d="M11 12a1 1 0 0 1-1-1c0-.932.703-1.429 1.168-1.758C11.73 8.845 12 8.626 12 8a1.001 1.001 0 0 0-2 0 1 1 0 1 1-2 0c0-1.654 1.346-3 3-3s3 1.346 3 3c0 1.69-1.05 2.432-1.677 2.875-.111.078-.255.18-.33.248A1 1 0 0 1 11 12z" opacity="1" data-original="url(#e)"></path>
    <path fill="url(#f)" d="M29.49 26.273A9.922 9.922 0 0 0 31 21c0-5.514-4.486-10-10-10s-10 4.486-10 10 4.486 10 10 10a9.93 9.93 0 0 0 5.273-1.509l3.333 1.428a.997.997 0 0 0 1.101-.212 1 1 0 0 0 .212-1.1z" opacity="1" data-original="url(#f)"></path>
    <path fill="url(#g)" d="M20 24a.997.997 0 0 1-.707-.293l-2-2a1 1 0 1 1 1.414-1.414L20 21.586l3.293-3.293a1 1 0 1 1 1.414 1.414l-4 4A.997.997 0 0 1 20 24z" opacity="1" data-original="url(#g)"></path>
  </g>
</svg>