<svg xmlns="http://www.w3.org/2000/svg" version="1.1" xmlns:xlink="http://www.w3.org/1999/xlink" width="512" height="512" x="0" y="0" viewBox="0 0 512 512" style="enable-background:new 0 0 512 512" xml:space="preserve" class="">
  <g>
    <linearGradient id="a" x1="256" x2="256" y1="2.36" y2="493.87" gradientUnits="userSpaceOnUse">
      <stop offset="0" stop-color="#13c5fc"></stop>
      <stop offset="1" stop-color="#088ffd"></stop>
    </linearGradient>
    <g data-name="Layer 2">
      <g data-name="Layer 1 copy 4">
        <g data-name="62">
          <circle cx="256" cy="256" r="256" fill="url(#a)" opacity="1" data-original="url(#a)"></circle>
          <g fill="#fff" data-name="62">
            <path d="M321.77 155a13 13 0 0 0-12.14 23.1 115.48 115.48 0 1 1-107.26 0 13 13 0 0 0-12.14-23.1 141.58 141.58 0 1 0 131.54 0z" fill="#ffffff" opacity="1" data-original="#ffffff"></path>
            <path d="M256 244.7a13.05 13.05 0 0 0 13.05-13V103.05a13 13 0 0 0-26.1 0v128.6A13.05 13.05 0 0 0 256 244.7z" fill="#ffffff" opacity="1" data-original="#ffffff"></path>
          </g>
        </g>
      </g>
    </g>
  </g>
</svg>