<svg xmlns="http://www.w3.org/2000/svg" version="1.1" xmlns:xlink="http://www.w3.org/1999/xlink" width="512" height="512" x="0" y="0" viewBox="0 0 64 64" style="enable-background:new 0 0 512 512" xml:space="preserve" class="">
  <g>
    <linearGradient id="a" x1="7.99" x2="32.89" y1="13.22" y2="13.22" gradientUnits="userSpaceOnUse">
      <stop stop-opacity="1" stop-color="#2dd2ff" offset="0"></stop>
      <stop stop-opacity="1" stop-color="#0045a3" offset="1"></stop>
    </linearGradient>
    <linearGradient xlink:href="#a" id="b" x1="31.11" x2="56.01" y1="13.22" y2="13.22"></linearGradient>
    <linearGradient id="c" x1="10" x2="54" y1="45.97" y2="45.97" gradientUnits="userSpaceOnUse">
      <stop stop-opacity="1" stop-color="#47b5a0" offset="0"></stop>
      <stop stop-opacity="1" stop-color="#0065b1" offset="1"></stop>
    </linearGradient>
    <linearGradient id="d" x1="32" x2="32" y1="10.17" y2="36.83" gradientUnits="userSpaceOnUse">
      <stop stop-opacity="1" stop-color="#00a376" offset="0"></stop>
      <stop stop-opacity="1" stop-color="#005374" offset="1"></stop>
    </linearGradient>
    <linearGradient id="e" x1="32" x2="32" y1="31" y2="60.95" gradientUnits="userSpaceOnUse">
      <stop stop-opacity="1" stop-color="#59afe0" offset="0"></stop>
      <stop stop-opacity="1" stop-color="#174499" offset="1"></stop>
    </linearGradient>
    <path fill="url(#a)" d="M8.47 5.88a1 1 0 0 0-.42.73 15.45 15.45 0 0 0 24.35 14 1 1 0 0 0 .42-.73 15.45 15.45 0 0 0-24.35-14z" opacity="1" data-original="url(#a)" class=""></path>
    <path fill="url(#b)" d="M56 6.61a1 1 0 0 0-.42-.73 15.45 15.45 0 0 0-24.35 14 1 1 0 0 0 .42.73c10.58 7.54 25.49-.77 24.35-14z" opacity="1" data-original="url(#b)" class=""></path>
    <path fill="url(#c)" d="M40.32 31.44c-3.41.72-5.62 2.1-8.35 3.88L10.88 38a1 1 0 0 0-.88 1 22 22 0 0 0 44 0c0-5-4.79-9.45-13.68-7.56z" opacity="1" data-original="url(#c)" class=""></path>
    <path fill="url(#d)" d="M48.58 10.17A95.29 95.29 0 0 0 32 18.68a95.37 95.37 0 0 0-16.58-8.51A95.53 95.53 0 0 0 31 20.45v16.38h2V20.45a95.48 95.48 0 0 0 15.58-10.28z" opacity="1" data-original="url(#d)"></path>
    <path fill="url(#e)" d="M53.17 36.74c-1.73-1.15-4.05 1.83-9.84 2.09-9.77.42-11.18-5.59-19.65-7.39-4.48-1-8.35-.34-10.9 1.73A7.32 7.32 0 0 0 10 39a22 22 0 0 0 44 0 2.5 2.5 0 0 0-.83-2.26z" opacity="1" data-original="url(#e)" class=""></path>
  </g>
</svg>