<svg xmlns="http://www.w3.org/2000/svg" version="1.1" xmlns:xlink="http://www.w3.org/1999/xlink" width="512" height="512" x="0" y="0" viewBox="0 0 512 512" style="enable-background:new 0 0 512 512" xml:space="preserve" class="">
  <g>
    <linearGradient id="a" x1="256" x2="256" y1="0" y2="512" gradientUnits="userSpaceOnUse">
      <stop stop-opacity="1" stop-color="#01bce4" offset="0"></stop>
      <stop stop-opacity="1" stop-color="#036ac3" offset="1"></stop>
    </linearGradient>
    <path fill="url(#a)" d="M391.501 275.837c0 19.921-16.207 36.128-36.128 36.128h-11.545c-6.627 0-12 5.372-12 12v47.534H140.501v-41.061c29.899-.246 54.149-24.646 54.149-54.602s-24.25-54.356-54.149-54.603v-41.062h47.535c6.627 0 12-5.372 12-12v-11.545c0-19.921 16.207-36.128 36.128-36.128s36.128 16.207 36.128 36.128v11.545c0 6.628 5.373 12 12 12h47.535v47.535c0 6.627 5.373 12 12 12h11.545c19.922.002 36.129 16.209 36.129 36.131zM511.999 256c0 141.159-114.841 256-255.999 256C114.841 512 0 397.159 0 256S114.842 0 256 0s255.999 114.841 255.999 256zm-96.498 19.837c0-33.004-26.728-59.882-59.674-60.127v-47.537c0-6.628-5.373-12-12-12h-47.536c-.246-32.946-27.124-59.673-60.127-59.673s-59.881 26.727-60.126 59.673h-47.536c-6.627 0-12 5.372-12 12v65.06c0 6.627 5.373 12 12 12h11.545c16.875 0 30.604 13.729 30.604 30.604s-13.729 30.604-30.604 30.604h-11.545c-6.627 0-12 5.372-12 12V383.5c0 6.628 5.373 12 12 12h215.326c6.627 0 12-5.372 12-12v-47.536c32.945-.246 59.673-27.124 59.673-60.127z" opacity="1" data-original="url(#a)" class=""></path>
  </g>
</svg>