<svg xmlns="http://www.w3.org/2000/svg" version="1.1" xmlns:xlink="http://www.w3.org/1999/xlink" width="512" height="512" x="0" y="0" viewBox="0 0 100 100" style="enable-background:new 0 0 512 512" xml:space="preserve" class="">
  <g>
    <linearGradient id="a">
      <stop stop-opacity="1" stop-color="#004c99" offset="0.174"></stop>
      <stop stop-opacity="1" stop-color="#0099ff" offset="0.779"></stop>
    </linearGradient>
    <linearGradient xlink:href="#a" id="b" x1="5.46" x2="109.056" y1="-8.557" y2="94.926" gradientUnits="userSpaceOnUse"></linearGradient>
    <linearGradient xlink:href="#a" id="c" x1="-22.549" x2="81.046" y1="19.483" y2="122.966" gradientUnits="userSpaceOnUse"></linearGradient>
    <linearGradient xlink:href="#a" id="d" x1="2.047" x2="105.643" y1="-5.141" y2="98.342" gradientUnits="userSpaceOnUse"></linearGradient>
    <path fill="url(#b)" d="M21.858 51.198h2.395a4.74 4.74 0 0 0 4.74-4.74v-5.63a4.74 4.74 0 0 0-4.216-4.71V29.56c0-13.77 11.202-24.972 24.972-24.972 6.665 0 12.935 2.597 17.658 7.312 4.716 4.724 7.314 10.996 7.314 17.66v6.557a4.74 4.74 0 0 0-4.217 4.712v5.629a4.742 4.742 0 0 0 3.688 4.623v3.926c0 9.302-7.309 16.928-16.485 17.438a3.948 3.948 0 0 0-3.884-3.238h-2.804a3.947 3.947 0 0 0-3.947 3.947v.726a3.947 3.947 0 0 0 3.947 3.947h2.804a3.948 3.948 0 0 0 3.892-3.291c10.325-.517 18.565-9.079 18.565-19.53v-3.808h1.36a2.412 2.412 0 0 0 2.412-2.412V38.5a2.412 2.412 0 0 0-2.412-2.412h-.832V29.56c0-7.221-2.813-14.017-7.925-19.137C63.766 5.313 56.97 2.5 49.749 2.5c-14.921 0-27.06 12.139-27.06 27.06v6.528h-.831a2.412 2.412 0 0 0-2.412 2.412v10.286a2.412 2.412 0 0 0 2.412 2.412z" opacity="1" data-original="url(#b)" class=""></path>
    <path fill="url(#c)" d="M92.228 89.733c-.428-3.717-2.61-7.026-5.857-8.926l-.98-.584a45.097 45.097 0 0 0-11.986-4.834l-4.676-1.127a22.424 22.424 0 0 1-8.801 3.204 7.039 7.039 0 0 1-6.107 3.498h-2.798c-3.904 0-7.078-3.184-7.078-7.089v-.72c0-.115 0-.23.02-.334-2.16-.898-4.185-2.255-6.033-3.978l-.313 1.566a3.939 3.939 0 0 1-2.923 3.028l-8.101 1.952a45.097 45.097 0 0 0-11.985 4.834l-.981.584c-3.247 1.9-5.429 5.21-5.857 8.926L7.469 97.5h85.062z" opacity="1" data-original="url(#c)"></path>
    <path fill="url(#d)" d="M53.82 66.077c1.776 0 3.404.647 4.657 1.743 6.994-5.313 11.849-16.63 11.849-27.435 0-14.793-9.103-23.02-20.326-23.02s-20.326 8.227-20.326 23.02c0 12.423 6.42 25.535 15.127 29.408a7.054 7.054 0 0 1 6.222-3.716z" opacity="1" data-original="url(#d)" class=""></path>
  </g>
</svg>